<svg width="443" height="388" viewBox="0 0 443 388" fill="none" xmlns="http://www.w3.org/2000/svg">
<path opacity="0.1" d="M53.2904 71.7355C57.3276 47.6466 78.1778 30.0001 102.603 30.0001H392.285C419.899 30.0001 442.285 52.3859 442.285 80.0001V338C442.285 365.614 419.899 388 392.285 388H59.3624C28.4471 388 4.94011 360.226 10.0502 329.736L53.2904 71.7355Z" fill="#68C9BA"/>
<path d="M410.014 124.03C435.738 153.207 405.363 181.381 351.903 182.141C245.616 175.137 221.631 81.0074 229.664 59.9028C237.697 38.7982 261.615 38.2221 297.054 81.2151C332.493 124.208 377.858 87.5572 410.014 124.03Z" stroke="white" stroke-width="1.5"/>
<ellipse cx="305.634" cy="89.1502" rx="16.8481" ry="9.95569" transform="rotate(20.7184 305.634 89.1502)" stroke="white" stroke-width="1.5"/>
</svg>
