<svg width="60" height="60" viewBox="0 0 60 60" fill="none" xmlns="http://www.w3.org/2000/svg">
<path fill-rule="evenodd" clip-rule="evenodd" d="M25.1284 35.0916C25.0256 34.3278 24.9722 33.5458 24.9722 32.75C24.9722 31.9445 25.0268 31.1532 25.1321 30.3804H22.1196C21.9504 31.1433 21.8611 31.9363 21.8611 32.75C21.8611 33.5539 21.9482 34.3373 22.1134 35.0916H25.1284ZM25.8485 38.2027H23.3226C24.4293 40.112 26.0994 41.654 28.1053 42.6015C27.1523 41.2939 26.3851 39.8108 25.8485 38.2027ZM29.2383 38.2027H36.2617C35.4442 40.0166 34.2317 41.5706 32.75 42.7239C31.2683 41.5706 30.0558 40.0166 29.2383 38.2027ZM37.2148 35.0916H28.2852C28.1527 34.3339 28.0833 33.551 28.0833 32.75C28.0833 31.9391 28.1544 31.1468 28.2902 30.3804H37.2098C37.3456 31.1468 37.4167 31.9391 37.4167 32.75C37.4167 33.551 37.3473 34.3339 37.2148 35.0916ZM39.6515 38.2027C39.1149 39.8108 38.3477 41.2937 37.3947 42.6015C39.4006 41.654 41.0707 40.112 42.1774 38.2027H39.6515ZM43.3866 35.0916H40.3716C40.4744 34.3278 40.5278 33.5458 40.5278 32.75C40.5278 31.9445 40.4732 31.1532 40.3679 30.3804H43.3804C43.5496 31.1433 43.6389 31.9363 43.6389 32.75C43.6389 33.5539 43.5518 34.3373 43.3866 35.0916ZM32.75 22.7761C31.276 23.9235 30.0684 25.4675 29.2511 27.2693H36.2489C35.4316 25.4675 34.224 23.9235 32.75 22.7761ZM39.6422 27.2693H42.1611C41.0543 25.3729 39.3908 23.8413 37.3947 22.8985C38.3421 24.1986 39.106 25.6719 39.6422 27.2693ZM23.3389 27.2693H25.8578C26.394 25.6719 27.1579 24.1986 28.1053 22.8985C26.1092 23.8413 24.4457 25.3729 23.3389 27.2693ZM32.75 18.75C40.482 18.75 46.75 25.018 46.75 32.75C46.75 40.482 40.482 46.75 32.75 46.75C25.018 46.75 18.75 40.482 18.75 32.75C18.75 25.018 25.018 18.75 32.75 18.75Z" fill="#222222"/>
</svg>
