<svg width="18" height="18" viewBox="0 0 18 18" fill="none" xmlns="http://www.w3.org/2000/svg">
<path fill-rule="evenodd" clip-rule="evenodd" d="M3 0C2.4477 0 2 0.4477 2 1C2 1.5523 2.4477 2 3 2H7.2191L8.8204 3.4836L9.108 3.75H9.5H16V15C16 15.5523 16.4477 16 17 16C17.5523 16 18 15.5523 18 15V3.75C18 2.6454 17.1046 1.75 16 1.75H9.892L8.5783 0.5329C8.2086 0.1903 7.7231 0 7.2191 0H3ZM6.597 7.1753L7.1808 7.75H8H12V16H2V6H5.403L6.597 7.1753ZM6.5141 4.2873L8 5.75H13C13.5523 5.75 14 6.1977 14 6.75V17C14 17.5523 13.5523 18 13 18H1C0.4477 18 0 17.5523 0 17V5C0 4.4477 0.4477 4 1 4H5.8126C6.0751 4 6.3271 4.1032 6.5141 4.2873Z" fill="#222222"/>
</svg>
