<svg width="40" height="40" viewBox="0 0 40 40" fill="none" xmlns="http://www.w3.org/2000/svg">
<path d="M36.7 20H21.3C20.4248 20 19.5854 20.3951 18.9665 21.0984C18.3477 21.8016 18 22.7554 18 23.75V36.25C18 37.2445 18.3477 38.1984 18.9665 38.9016C19.5854 39.6049 20.4248 40 21.3 40H36.7C37.5752 40 38.4146 39.6049 39.0334 38.9016C39.6523 38.1984 40 37.2445 40 36.25V23.75C40 22.7554 39.6523 21.8016 39.0334 21.0984C38.4146 20.3951 37.5752 20 36.7 20ZM21.3 22.5H36.7C36.9917 22.5 37.2716 22.6317 37.4778 22.8661C37.6841 23.1005 37.8 23.4185 37.8 23.75L29 29.85L20.2 23.75C20.2 23.4185 20.3159 23.1005 20.5222 22.8661C20.7285 22.6317 21.0083 22.5 21.3 22.5ZM37.8 36.25C37.8 36.5815 37.6841 36.8995 37.4778 37.1339C37.2716 37.3682 36.9917 37.5 36.7 37.5H21.3C21.0083 37.5 20.7285 37.3682 20.5222 37.1339C20.3159 36.8995 20.2 36.5815 20.2 36.25V26.6L28.428 32.3125C28.5952 32.4223 28.7849 32.48 28.978 32.48C29.171 32.48 29.3608 32.4223 29.528 32.3125L37.8 26.6V36.25Z" fill="black"/>
</svg>
