<svg width="35" height="35" viewBox="0 0 35 35" fill="none" xmlns="http://www.w3.org/2000/svg">
<path d="M26.2503 29.1668H4.37533C3.98827 29.1706 3.61604 29.0179 3.34331 28.7433C3.07057 28.4687 2.92049 28.0954 2.9272 27.7083H2.91699V7.29167C2.91699 5.68084 4.22283 4.375 5.83366 4.375H14.5837C14.9094 4.37531 15.2256 4.48467 15.482 4.68563L18.8128 7.29167H26.2503C27.8612 7.29167 29.167 8.5975 29.167 10.2083V16.0417H30.6253C31.1155 16.0417 31.573 16.2881 31.8427 16.6973C32.1125 17.1065 32.1586 17.6241 31.9655 18.0746L27.5905 28.2829C27.3607 28.819 26.8337 29.1668 26.2503 29.1668ZM9.71282 18.9583L6.58762 26.25H25.2893L28.4145 18.9583H9.71282ZM5.83366 10.2083V20.6063L7.41012 16.9254C7.63992 16.3893 8.16705 16.0417 8.75033 16.0417H26.2503V10.2083H5.83366Z" fill="black"/>
</svg>
