<svg width="72" height="72" viewBox="0 0 72 72" fill="none" xmlns="http://www.w3.org/2000/svg">
<path fill-rule="evenodd" clip-rule="evenodd" d="M40.5004 31.5C40.5004 33.9853 38.4858 36 36.0004 36C33.5151 36 31.5004 33.9853 31.5004 31.5C31.5004 29.0146 33.5151 27 36.0004 27C38.4858 27 40.5004 29.0146 40.5004 31.5ZM43.5004 31.5C43.5004 35.6421 40.1425 39 36.0004 39C31.8583 39 28.5004 35.6421 28.5004 31.5C28.5004 27.3579 31.8583 24 36.0004 24C40.1425 24 43.5004 27.3579 43.5004 31.5ZM28.5372 39.4355C28.7446 39.2753 28.9959 39.1765 29.2579 39.1677C30.0244 39.1417 30.4138 39.3204 30.7132 39.659C31.291 40.3122 30.9112 41.3727 30.2317 41.9193C28.9824 42.924 28.0164 44.2459 27.4594 45.7497H44.5399C43.9831 44.2463 43.0174 42.9246 41.7685 41.9199C41.089 41.3733 40.7095 40.3125 41.2873 39.6593C41.5869 39.3206 41.9761 39.1421 42.7426 39.1682C43.0044 39.1772 43.2556 39.2758 43.4629 39.4359C45.8949 41.314 47.5732 44.0892 47.9797 47.253C48.0853 48.0747 47.4036 48.7497 46.5753 48.7497H25.4242C24.5958 48.7497 23.914 48.0747 24.0196 47.253C24.4263 44.0891 26.1049 41.3136 28.5372 39.4355Z" fill="#222222"/>
</svg>
