<svg width="30" height="30" viewBox="0 0 30 30" fill="none" xmlns="http://www.w3.org/2000/svg">
<g clip-path="url(#clip0)">
<path d="M17.323 16.5574C18.0819 15.9121 18.6907 15.1141 19.1079 14.2173C19.5251 13.3206 19.741 12.3462 19.741 11.3603C19.741 9.50768 18.9917 7.73095 17.6579 6.42095C16.3243 5.11094 14.5153 4.375 12.6291 4.375C10.7429 4.375 8.93394 5.11094 7.6002 6.42095C6.26644 7.73095 5.51716 9.50768 5.51716 11.3603C5.51714 12.3462 5.73308 13.3206 6.1503 14.2173C6.56752 15.1141 7.17626 15.9121 7.93521 16.5574C5.94407 17.4429 4.25475 18.873 3.0692 20.6766C1.88367 22.4803 1.25209 24.5811 1.25 26.7279C1.25 27.0984 1.39986 27.4539 1.6666 27.7158C1.93336 27.9778 2.29514 28.125 2.67239 28.125C3.04963 28.125 3.41141 27.9778 3.67817 27.7158C3.94491 27.4539 4.09477 27.0984 4.09477 26.7279C4.09477 24.5048 4.99392 22.3727 6.59442 20.8008C8.19491 19.2287 10.3656 18.3456 12.6291 18.3456C14.8925 18.3456 17.0632 19.2287 18.6637 20.8008C20.2643 22.3727 21.1634 24.5048 21.1634 26.7279C21.1634 27.0984 21.3133 27.4539 21.58 27.7158C21.8467 27.9778 22.2086 28.125 22.5858 28.125C22.963 28.125 23.3249 27.9778 23.5916 27.7158C23.8583 27.4539 24.0082 27.0984 24.0082 26.7279C24.006 24.5811 23.3745 22.4803 22.1889 20.6766C21.0034 18.873 19.3142 17.4429 17.323 16.5574ZM12.6291 15.5515C11.7851 15.5515 10.9601 15.3057 10.2584 14.8451C9.55665 14.3846 9.00971 13.73 8.68675 12.9642C8.36378 12.1983 8.27927 11.3556 8.44392 10.5426C8.60857 9.72963 9.01498 8.98284 9.61175 8.39669C10.2085 7.81054 10.9689 7.41137 11.7966 7.24964C12.6244 7.08794 13.4823 7.17093 14.2621 7.48815C15.0417 7.80537 15.7083 8.34256 16.1771 9.0318C16.646 9.72104 16.8962 10.5314 16.8962 11.3603C16.8962 12.4719 16.4466 13.5379 15.6464 14.3239C14.8462 15.1099 13.7608 15.5515 12.6291 15.5515ZM26.4831 15.9985C27.3935 14.9917 27.988 13.748 28.1954 12.4169C28.4028 11.0859 28.214 9.72444 27.652 8.49632C27.0899 7.26821 26.1785 6.22582 25.0273 5.49463C23.876 4.76345 22.5343 4.37464 21.1634 4.375C20.7862 4.375 20.4243 4.52219 20.1576 4.78418C19.8909 5.04619 19.741 5.40153 19.741 5.77206C19.741 6.14259 19.8909 6.49793 20.1576 6.75993C20.4243 7.02192 20.7862 7.16912 21.1634 7.16912C22.2951 7.16912 23.3805 7.61069 24.1807 8.39669C24.9809 9.18269 25.4306 10.2487 25.4306 11.3603C25.4286 12.0941 25.2304 12.8145 24.8561 13.4495C24.4815 14.0844 23.944 14.6118 23.297 14.9787C23.086 15.0981 22.91 15.2688 22.7855 15.4742C22.6609 15.6797 22.5922 15.9132 22.5858 16.1522C22.5798 16.3894 22.6354 16.6241 22.7475 16.8344C22.8595 17.0445 23.024 17.2233 23.2259 17.3537L23.7806 17.7169L23.9655 17.8147C25.68 18.6134 27.1265 19.8768 28.1345 21.4559C29.1424 23.035 29.67 24.8641 29.655 26.7279C29.655 27.0984 29.805 27.4539 30.0717 27.7158C30.3384 27.9778 30.7002 28.125 31.0774 28.125C31.4546 28.125 31.8165 27.9778 32.0832 27.7158C32.3499 27.4539 32.4998 27.0984 32.4998 26.7279C32.5115 24.584 31.9647 22.4729 30.9117 20.595C29.8586 18.7171 28.3341 17.1348 26.4831 15.9985Z" fill="black"/>
</g>
<defs>
<clipPath id="clip0">
<rect width="30" height="30" fill="white"/>
</clipPath>
</defs>
</svg>
