<svg width="48" height="48" viewBox="0 0 48 48" fill="none" xmlns="http://www.w3.org/2000/svg">
<path fill-rule="evenodd" clip-rule="evenodd" d="M22.1429 21.1111C22.1429 19.086 23.8697 17.4444 26 17.4444C28.1303 17.4444 29.8571 19.086 29.8571 21.1111V23.5556H22.1429V21.1111ZM19.5714 23.5556V21.1111C19.5714 17.7361 22.4496 15 26 15C29.5504 15 32.4286 17.7361 32.4286 21.1111V23.5556C33.8488 23.5556 35 24.6499 35 26V34.5556C35 35.9056 33.8488 37 32.4286 37H19.5714C18.1512 37 17 35.9056 17 34.5556V26C17 24.6499 18.1512 23.5556 19.5714 23.5556ZM19.5714 34.5556V26H32.4286V34.5556H19.5714Z" fill="#222222"/>
</svg>
