<svg width="48" height="48" viewBox="0 0 48 48" fill="none" xmlns="http://www.w3.org/2000/svg">
<path d="M40.9993 29.9686V33.5816C41.0006 33.917 40.9318 34.249 40.7971 34.5563C40.6625 34.8636 40.465 35.1395 40.2174 35.3662C39.9698 35.5929 39.6774 35.7656 39.3591 35.873C39.0406 35.9805 38.7034 36.0204 38.3686 35.9902C34.6553 35.5875 31.0885 34.3213 27.9547 32.2929C25.0391 30.4439 22.5671 27.9769 20.7144 25.067C18.675 21.9252 17.4059 18.3481 17.0098 14.6255C16.9796 14.2925 17.0193 13.9569 17.1262 13.6399C17.2332 13.323 17.4051 13.0318 17.631 12.7849C17.8569 12.5379 18.1318 12.3406 18.4383 12.2055C18.7448 12.0704 19.0761 12.0004 19.4112 12.0001H23.0313C23.6169 11.9944 24.1847 12.2013 24.6287 12.5824C25.0727 12.9636 25.3628 13.4928 25.4447 14.0716C25.5975 15.2278 25.8809 16.363 26.2894 17.4557C26.4518 17.8867 26.4869 18.3552 26.3907 18.8056C26.2944 19.256 26.0708 19.6694 25.7464 19.9968L24.2139 21.5263C25.9317 24.5414 28.4331 27.0379 31.4542 28.7522L32.9867 27.2227C33.3148 26.8989 33.729 26.6759 34.1802 26.5798C34.6315 26.4836 35.101 26.5188 35.5328 26.6808C36.6277 27.0886 37.7651 27.3714 38.9237 27.5238C39.5099 27.6063 40.0452 27.901 40.4279 28.3518C40.8106 28.8026 41.014 29.378 40.9993 29.9686Z" stroke="#222222" stroke-width="3" stroke-linecap="round" stroke-linejoin="round"/>
</svg>
