<svg width="48" height="48" viewBox="0 0 48 48" fill="none" xmlns="http://www.w3.org/2000/svg">
<path d="M28.2239 21.9684V25.5813C28.2252 25.9167 28.1564 26.2488 28.0217 26.5561C27.8871 26.8633 27.6897 27.1392 27.442 27.366C27.1944 27.5927 26.902 27.7654 26.5837 27.8728C26.2652 27.9802 25.928 28.0202 25.5932 27.99C21.8799 27.5872 18.3131 26.321 15.1793 24.2927C12.2637 22.4437 9.79173 19.9766 7.93901 17.0668C5.89964 13.9249 4.63049 10.3478 4.2344 6.6253C4.20425 6.29225 4.24391 5.95661 4.35085 5.6397C4.4578 5.3228 4.62969 5.03159 4.85558 4.78463C5.08147 4.53766 5.35642 4.34033 5.6629 4.20523C5.96939 4.07012 6.30071 4.00019 6.63576 3.99987H10.2559C10.8415 3.99412 11.4093 4.20108 11.8533 4.5822C12.2973 4.96331 12.5874 5.49256 12.6693 6.07131C12.8221 7.22753 13.1055 8.3628 13.514 9.45545C13.6764 9.88651 13.7115 10.355 13.6153 10.8054C13.519 11.2557 13.2954 11.6691 12.971 11.9966L11.4385 13.5261C13.1563 16.5412 15.6578 19.0376 18.6788 20.752L20.2113 19.2225C20.5394 18.8987 20.9537 18.6756 21.4048 18.5795C21.8562 18.4834 22.3256 18.5186 22.7575 18.6806C23.8523 19.0883 24.9897 19.3711 26.1483 19.5236C26.7345 19.6061 27.2698 19.9008 27.6525 20.3515C28.0353 20.8023 28.2386 21.3778 28.2239 21.9684Z" stroke="#222222" stroke-width="3" stroke-linecap="round" stroke-linejoin="round"/>
</svg>
