<svg width="60" height="60" viewBox="0 0 60 60" fill="none" xmlns="http://www.w3.org/2000/svg">
<path fill-rule="evenodd" clip-rule="evenodd" d="M38.75 28.75C38.75 32.8921 35.3921 36.25 31.25 36.25C27.1078 36.25 23.75 32.8921 23.75 28.75C23.75 24.6079 27.1078 21.25 31.25 21.25C35.3921 21.25 38.75 24.6079 38.75 28.75ZM41.25 28.75C41.25 34.2729 36.7728 38.75 31.25 38.75C28.9391 38.75 26.8112 37.9661 25.118 36.6499L20.8838 40.8839C20.3957 41.372 19.6042 41.372 19.1161 40.8839C18.628 40.3958 18.628 39.6042 19.1161 39.1161L23.3501 34.882C22.0338 33.1887 21.25 31.0609 21.25 28.75C21.25 23.2271 25.7271 18.75 31.25 18.75C36.7728 18.75 41.25 23.2271 41.25 28.75Z" fill="black"/>
</svg>
