<svg width="27" height="27" viewBox="0 0 27 27" fill="none" xmlns="http://www.w3.org/2000/svg">
<path fill-rule="evenodd" clip-rule="evenodd" d="M3.62184 11.672C3.62184 16.4309 7.47967 20.2887 12.2385 20.2887C16.9974 20.2887 20.8552 16.4309 20.8552 11.672C20.8552 6.91316 16.9974 3.05533 12.2385 3.05533C7.47967 3.05533 3.62184 6.91316 3.62184 11.672ZM0.749611 11.672C0.749611 18.0172 5.89334 23.1609 12.2385 23.1609C14.8935 23.1609 17.3382 22.2603 19.2835 20.7481L24.1481 25.6125C24.7089 26.1733 25.6182 26.1733 26.179 25.6125C26.7398 25.0517 26.7398 24.1424 26.179 23.5816L21.3146 18.717C22.8268 16.7716 23.7274 14.327 23.7274 11.672C23.7274 5.32683 18.5837 0.183105 12.2385 0.183105C5.89334 0.183105 0.749611 5.32683 0.749611 11.672Z" fill="#6C757D"/>
</svg>
