<svg width="18" height="17" viewBox="0 0 18 17" fill="none" xmlns="http://www.w3.org/2000/svg">
<path fill-rule="evenodd" clip-rule="evenodd" d="M1.36875 14.3034C0.978249 14.6939 0.978249 15.3271 1.36875 15.7176C1.75825 16.1071 2.38915 16.1081 2.77995 15.7206C2.78095 15.7196 2.78195 15.7186 2.78295 15.7176L4.81995 13.6806L6.28695 12.2136L7.85845 10.6421L10.6425 7.85801L12.3467 6.15391L13.792 4.70841L16.2181 2.28251C16.219 2.28151 16.2201 2.28051 16.2211 2.27951C16.6086 1.88871 16.6075 1.25781 16.2181 0.868314C15.8275 0.477814 15.1943 0.477814 14.8038 0.868314L11.9806 3.69151C11.0493 3.27681 10.0402 3.00011 9.00055 3.00011C6.96455 3.00011 5.04645 4.06111 3.59945 5.14141C2.12675 6.24071 0.99165 7.47431 0.49935 8.04231C0.02105 8.59421 0.02105 9.40591 0.49935 9.95781C0.94105 10.4674 1.90005 11.5127 3.15605 12.5161L1.36875 14.3034ZM14.7403 6.58861C14.7392 6.58981 14.7379 6.59101 14.7367 6.59221C14.7355 6.59351 14.7342 6.59471 14.733 6.59591C14.3254 7.00771 14.3555 7.67901 14.7749 8.08001C15.1343 8.42361 15.4395 8.74181 15.6761 9.00011C15.1445 9.58011 14.2676 10.4629 13.2051 11.2561C11.8686 12.2538 10.3831 13.0001 9.00055 13.0001C8.96005 13.0001 8.91955 12.9994 8.87895 12.9982C8.56355 12.9883 8.24795 13.0834 8.02385 13.3051C8.02265 13.3063 8.02145 13.3075 8.02025 13.3087L7.86365 13.4653C7.86245 13.4666 7.86115 13.4678 7.85995 13.469C7.34305 13.9911 7.55435 14.8714 8.28515 14.9574C8.52165 14.9853 8.76025 15.0001 9.00055 15.0001C11.0364 15.0001 12.9545 13.939 14.4016 12.8588C15.8742 11.7594 17.0094 10.5259 17.5018 9.95781C17.98 9.40591 17.98 8.59421 17.5018 8.04231C17.2193 7.71641 16.7253 7.17151 16.0773 6.55861C15.6996 6.20131 15.1095 6.22321 14.7403 6.58861ZM7.03295 8.63921C7.18155 7.82391 7.82435 7.18111 8.63965 7.03251L10.4337 5.23851C9.95065 5.08601 9.46965 5.00011 9.00055 5.00011C7.61785 5.00011 6.13235 5.74631 4.79585 6.74401C3.73335 7.53721 2.85645 8.42001 2.32485 9.00011C2.82005 9.54041 3.61485 10.3434 4.58015 11.092L7.03295 8.63921Z" fill="#222222"/>
</svg>
