<svg width="31" height="26" viewBox="0 0 31 26" fill="none" xmlns="http://www.w3.org/2000/svg">
<path d="M24.2503 25.1668H2.37533C1.98827 25.1706 1.61604 25.0179 1.34331 24.7433C1.07057 24.4687 0.920492 24.0954 0.9272 23.7083H0.916992V3.29167C0.916992 1.68084 2.22283 0.375 3.83366 0.375H12.5837C12.9094 0.375306 13.2256 0.484667 13.482 0.685625L16.8128 3.29167H24.2503C25.8612 3.29167 27.167 4.5975 27.167 6.20833V12.0417H28.6253C29.1155 12.0417 29.573 12.2881 29.8427 12.6973C30.1125 13.1065 30.1586 13.6241 29.9655 14.0746L25.5905 24.2829C25.3607 24.819 24.8337 25.1668 24.2503 25.1668ZM7.71282 14.9583L4.58762 22.25H23.2893L26.4145 14.9583H7.71282ZM3.83366 6.20833V16.6063L5.41012 12.9254C5.63992 12.3893 6.16705 12.0417 6.75033 12.0417H24.2503V6.20833H3.83366Z" fill="black"/>
</svg>
