<svg width="18" height="12" viewBox="0 0 18 12" fill="none" xmlns="http://www.w3.org/2000/svg">
<path fill-rule="evenodd" clip-rule="evenodd" d="M4.79585 8.256C3.73335 7.4628 2.85645 6.58 2.32485 6C2.85645 5.42 3.73335 4.5372 4.79585 3.744C6.13235 2.7462 7.61785 2 9.00055 2C10.3831 2 11.8686 2.7462 13.2051 3.744C14.2676 4.5372 15.1445 5.42 15.6761 6C15.1445 6.58 14.2676 7.4628 13.2051 8.256C11.8686 9.2538 10.3831 10 9.00055 10C7.61785 10 6.13235 9.2538 4.79585 8.256ZM9.00055 0C6.96455 0 5.04645 1.0611 3.59945 2.1413C2.12675 3.2406 0.99165 4.4742 0.49935 5.0423C0.02105 5.5941 0.02105 6.4059 0.49935 6.9577C0.99165 7.5258 2.12675 8.7594 3.59945 9.8587C5.04645 10.9389 6.96455 12 9.00055 12C11.0364 12 12.9545 10.9389 14.4016 9.8587C15.8742 8.7594 17.0094 7.5258 17.5018 6.9577C17.98 6.4059 17.98 5.5941 17.5018 5.0423C17.0094 4.4742 15.8742 3.2406 14.4016 2.1413C12.9545 1.0611 11.0364 0 9.00055 0ZM9.00055 8C10.105 8 11.0005 7.1046 11.0005 6C11.0005 4.8954 10.105 4 9.00055 4C7.89595 4 7.00055 4.8954 7.00055 6C7.00055 7.1046 7.89595 8 9.00055 8Z" fill="#222222"/>
</svg>
